/* XPM */
static const char *cat_left[] = {
/* columns rows colors chars-per-pixel */
"32 32 201 2 ",
"   c #1B1425",
".  c #191427",
"X  c #1B1526",
"o  c #1A1627",
"O  c #1A1727",
"+  c #1D1727",
"@  c #1D1826",
"#  c #1C1827",
"$  c #1D1827",
"%  c #1E1826",
"&  c #1E1927",
"*  c #191728",
"=  c #1B1728",
"-  c #1B1729",
";  c #1C1729",
":  c #1D1729",
">  c #1E1728",
",  c #1D172A",
"<  c #1D172B",
"1  c #1A1828",
"2  c #1B1828",
"3  c #1A1829",
"4  c #1C1828",
"5  c #1D1828",
"6  c #1C1928",
"7  c #1D1928",
"8  c #1D1829",
"9  c #1C1929",
"0  c #1D1929",
"q  c #1E1828",
"w  c #1E1928",
"e  c #1F1928",
"r  c #1E1829",
"t  c #1E1929",
"y  c #1F1929",
"u  c #1E1A28",
"i  c #1E1A29",
"p  c #1F1A29",
"a  c #1D182A",
"s  c #1C192A",
"d  c #1C192B",
"f  c #1D192B",
"g  c #1E182A",
"h  c #1E192A",
"j  c #1E182B",
"k  c #1E192B",
"l  c #1F192B",
"z  c #1E1A2A",
"x  c #1F1A2A",
"c  c #1F1A2B",
"v  c #1F1C2B",
"b  c #1D192C",
"n  c #201929",
"m  c #201A28",
"M  c #6E4C42",
"N  c #735347",
"B  c #755045",
"V  c #765244",
"C  c #775246",
"Z  c #765346",
"A  c #765347",
"S  c #755447",
"D  c #775446",
"F  c #765447",
"G  c #775447",
"H  c #785548",
"J  c #795648",
"K  c #7A564A",
"L  c #7B584A",
"P  c #7F5948",
"I  c #80594A",
"U  c #92644C",
"Y  c #9D6A4D",
"T  c #9E6A4D",
"R  c #9C684F",
"E  c #9C6A4F",
"W  c #9D6A4F",
"Q  c #996851",
"!  c #A87154",
"~  c #AA7354",
"^  c #AD7654",
"/  c #AE7655",
"(  c #AF7556",
")  c #AE7958",
"_  c #B37955",
"`  c #B17856",
"'  c #B37C56",
"]  c #B37D57",
"[  c #B47C56",
"{  c #B67F59",
"}  c #B8815A",
"|  c #BC885F",
" . c #BF8E68",
".. c #C2895F",
"X. c #C38B5F",
"o. c #C38D64",
"O. c #C08E65",
"+. c #C68F64",
"@. c #C88F64",
"#. c #C99163",
"$. c #C89064",
"%. c #C99064",
"&. c #C99065",
"*. c #C99265",
"=. c #CA9264",
"-. c #CA9265",
";. c #CA9266",
":. c #CC9266",
">. c #C39069",
",. c #C6916A",
"<. c #C6946D",
"1. c #C89069",
"2. c #C99469",
"3. c #CA9569",
"4. c #C9956B",
"5. c #CD9569",
"6. c #CD9769",
"7. c #CD956A",
"8. c #CF956B",
"9. c #CE976B",
"0. c #C9936C",
"q. c #C8946C",
"w. c #CD966C",
"e. c #CF986C",
"r. c #CF9B6E",
"t. c #D49B6F",
"y. c #CA9670",
"u. c #CD9B73",
"i. c #CE9A73",
"p. c #CE9B73",
"a. c #C99974",
"s. c #CA9974",
"d. c #D39C75",
"f. c #ACB1BE",
"g. c #ADB1BF",
"h. c #ACB2BE",
"j. c #ADB2BE",
"k. c #ACB2BF",
"l. c #AEB3BE",
"z. c #AEB2BF",
"x. c #AFB3BF",
"c. c #AEB4BF",
"v. c #F6AAAD",
"b. c #F5AAAE",
"n. c #ADAFC0",
"m. c #ADB2C0",
"M. c #AEB3C0",
"N. c #AFB3C1",
"B. c #ADB1C3",
"V. c #ACB3C3",
"C. c #AEB2C3",
"Z. c #ADB4C1",
"A. c #AEB4C1",
"S. c #AFB4C1",
"D. c #AFB5C1",
"F. c #ADB5C3",
"G. c #AFB4C2",
"H. c #AFB4C3",
"J. c #AFB5C3",
"K. c #A9B1C4",
"L. c #AAB3C7",
"P. c #AEB5C5",
"I. c #AFB6C4",
"U. c #AFB7C4",
"Y. c #AEB5C6",
"T. c #B1B5C1",
"R. c #B0B4C2",
"E. c #B0B5C2",
"W. c #B0B4C3",
"Q. c #B0B5C3",
"!. c #B0B6C3",
"~. c #B2B6C3",
"^. c #B0B6C4",
"/. c #B1B6C4",
"(. c #FDBBDC",
"). c #FDBBDD",
"_. c #FBBEDE",
"`. c #FCBEDF",
"'. c #DBCFC2",
"]. c #E2D3C0",
"[. c #EDD5C0",
"{. c #FBE8DB",
"}. c #FDEBDD",
"|. c #FDEBDE",
" X c #FCECDD",
".X c #FDECDD",
"XX c #FEECDD",
"oX c #FDECDE",
"OX c #FCEDDE",
"+X c #FDECDF",
"@X c #FEECDE",
"#X c #FEECDF",
"$X c #FDC0E5",
"%X c #FEC2E4",
"&X c #FDECE0",
"*X c #FBF0E6",
"=X c #FAF0E7",
"-X c #FAF1E7",
";X c #FBF3EB",
":X c #FCF2E9",
">X c None",
/* pixels */
">X>X>X>X>X>X>X>X>X>X>X>X>X>X>X>X>X>X>X>X>X>X>X>X>X>X>X>X>X>X>X>X",
">X>X>X>X>X>X>X>X>X>X>X>X>X>X>X>X>X>X>X>X>X>X>X>X>X>X>X>X>X>X>X>X",
">X>X>X>X>X>X>X>X>X>X>X>X>X>X>X>X>X>X>X>X>X>X>X>X>X>X>X>X>X>X>X>X",
">X>X>X>X>X>X>X>X>X>X>X>X>X>X>X>X>X>X>X>X>X>X>X>X>X>X>X>X>X>X>X>X",
">X>X>X>X>X>X>X>X>X>X>X>X>X>X>X>X>X>X>X>X>X>X>X>X>X>X>X>X>X>X>X>X",
">X>X>X>X>X>X>Xg g >X>X>X>X>X>X>X>X>Xg g g >X>X>X>X>X>X>X>X>X>X>X",
">X>X>X>X>X>Xg S.z.+ >X>X>X>X>X>X>Xg z.z.z.g >X>X>X>X>X>X>X>X>X>X",
">X>X>X>X>X>Xg N.z.R.g g g g g g * S.z.z.z.g >X>X>X>X>X>X>X>X>X>X",
">X>X>X>X>X>Xg R.`.R.[.2.2.| }..X.XR.b.).c.g >X>X>X>X>X>X>X>X>X>X",
">X>X>X>X>X>Xg R._..X.X}..X.X.X.X}.}.b.).S.g >X>X>X>X>X>X>X>X>X>X",
">X>X>X>X>X>Xg o..X.X.X.X.X.X.X.X.X.X}.].S.m >X>X>X>X>X>X>X>X>X>X",
">X>X>X>X>X>Xg &X.X.X.X.X.X.X.X.X.X.X}..X[ m >X>X>X>X>X>X>X>X>X>X",
">X>X>X>X>Xb s..X.X.X}..X.X.X.X.X.X.X}..XN.g >X>X>X>X>X>X>X>X>X>X",
">X>X>X>X>Xg s..X}..XO .X.X.X.X.XO }..XX.V $ >Xg g g g >X>X>X>X>X",
">X>X>X>X>X; ( .X}..X* .X.X.X.X.XO }.}.X.F g g :X .;X>.g >X>X>X>X",
">X>X>X>X>X; p.p..X.X.X.X$X$X.X.X}..X.X.XV g g Q P *X<.g >X>X>X>X",
">X>X>X>X; >X,.p.p..X.X.X}.}..X}..X.X5.w.'.N.S.g g y.] g >X>X>X>X",
">X>X>X>X>Xg L.T T 1..X.X.X.X.X.X-.:.5.! N.; >X>Xg *X0.g >X>X>X>X",
">X>X>X>X>X>Xg g T T /./.I./.S.I.S.I.T g g I.>Xg g *Xq.g >X>X>X>X",
">X>X>X>X>X>X>X>Xg g g g g z.; $ g g g g g g g g 2.o.g >X>X>X>X>X",
">X>X>X>X>X>X>X>X>Xg R.S.S.S.S.S.S.R.F F H H L +.} U g >X>X>X>X>X",
">X>X>X>X>X>X>X>X>Xg .X.X.X.X.X.X}.}.-.-._ #.-.{ H v >X>X>X>X>X>X",
">X>X>X>X>X>X>X>X>X2 .X.X.X.X.X.X.X.X.X-.-.-.( F g >X>X>X>X>X>X>X",
">X>X>X>X>X>X>X>X>X2 .X.X.X.X.X.X.X}.t.r.@.-.( F $ >X>X>X>X>X>X>X",
">X>X>X>X>X>X>X>X>X2 .X.X.X.X.X.X.X.X.Xr.5.] I N $ >X>X>X>X>X>X>X",
">X>X>X>X>X>X>X>X>X2 d..X.X.X.X.X.X5.5.5.) V V g >X>X>X>X>X>X>X>X",
">X>X>X>X>X>X>X>X>X* _ {.N.O N.O n.! O L.* V M g >X>X>X>X>X>X>X>X",
">X>X>X>X>X>X>X>X>X>X>X>X>X>X>X>X>X>X>X>X>X>X>X>X>X>X>X>X>X>X>X>X",
">X>X>X>X>X>X>X>X>X>X>X>X>X>X>X>X>X>X>X>X>X>X>X>X>X>X>X>X>X>X>X>X",
">X>X>X>X>X>X>X>X>X>X>X>X>X>X>X>X>X>X>X>X>X>X>X>X>X>X>X>X>X>X>X>X",
">X>X>X>X>X>X>X>X>X>X>X>X>X>X>X>X>X>X>X>X>X>X>X>X>X>X>X>X>X>X>X>X",
">X>X>X>X>X>X>X>X>X>X>X>X>X>X>X>X>X>X>X>X>X>X>X>X>X>X>X>X>X>X>X>X"
};
