/* XPM */
static const char *item_fish[] = {
/* columns rows colors chars-per-pixel */
"32 32 18 1 ",
"  c #395255",
". c #4F6872",
"X c #963D27",
"o c #AF5736",
"O c #D25F38",
"+ c #DF773E",
"@ c #E17D35",
"# c #E07A39",
"$ c #DD7343",
"% c #EB963F",
"& c #EB964B",
"* c #EB9653",
"= c #668290",
"- c #BFB097",
"; c #F2D4AE",
": c #85A4C1",
"> c #C2D0EA",
", c None",
/* pixels */
",,,,,,,,,,,,,,,,,,,,,,,,,,,,,,,,",
",,,,,,,,,,,,,,,,,,,,,,,,,,,,,,,,",
",,,,,,,,,,,,,,,,,,,,,,,,,,,,,,,,",
",,,,,,,,,,,,,,,,,,,,,,,,,,,,,,,,",
",,,,,,,,,,,,,,,,,,,,,,,,,,,,,,,,",
",,,,,,,,,,,,,,,,,      ,,,,,,,,,",
",,,,,,,,,,,,,,,  ##OOOO   ,,,,,,",
",,,,,,,,,,,,,, #####OOOOO+ ,,,,,",
",,,,,,,,,,,,, ######OOOO+++ ,,,,",
",,,,,,,,,,,  &&&######O;;+++ ,,,",
",,,,,,,,,  %#&&&#####;;-++&&& ,,",
",,,,,,,  %%%#&&#####;-O;++&&& ,,",
",,,,,, $%%%#######;;;OOO+++++ ,,",
",,,,, $OOO%%####*;--;OOOO++&& ,,",
",,,, @OOO%%%%#**XXX;OOOOO+&&  ,,",
",,, @@&OOOOOO#XXXX++OOO+&&&&. ,,",
",, @@&&++OOXXXXXXX+++++++&& . ,,",
",, @&&&&XXXXXoooX++&&+++OO&   ,,",
",= @@&XXoooooooXOO&&&&++O..   ,,",
",= &XXXXoXXXoXXOOO##&&&..    ,,,",
",=>:XooXXX,,,++OO####.....  ,,,,",
",=>>ooXX,,,@@OOO%%%%=...    ,,,,",
",=>:oo,,,=@@OOO%%%:===.... ,,,,,",
",,::,,,,,=::>>:::::====..,,,,,,,",
",,,,,,,,,=:>>>>>=====..,,,,,,,,,",
",,,,,,,,,=::>>>:::=..,,,,,,,,,,,",
",,,,,,,,,=:::>>>:..,,,,,,,,,,,,,",
",,,,,,,,,,=====..,,,,,,,,,,,,,,,",
",,,,,,,,,,,,,,,,,,,,,,,,,,,,,,,,",
",,,,,,,,,,,,,,,,,,,,,,,,,,,,,,,,",
",,,,,,,,,,,,,,,,,,,,,,,,,,,,,,,,",
",,,,,,,,,,,,,,,,,,,,,,,,,,,,,,,,"
};
