/* XPM */
static char *result[] = {
/* columns rows colors chars-per-pixel */
"32 32 7 1 ",
"  c #0C1317",
". c #70162B",
"X c #31314B",
"o c #A84111",
"O c #E17B50",
"+ c #8D768A",
"@ c None",
/* pixels */
"@@@@@@@@@@@@@@@@@@@@@@@@@@@@@@@@",
"@@@@@@@@@@@@@@@@@@@@@@@@@@@@@@@@",
"@@@@@@@@@@@@@@@@@@@@@@@@@@@@@@@@",
"@@@@@@@@@@@@@@@@@@@@@@@@@@@@@@@@",
"@@@@@@@@@@@@@@@@@@@@@@@@@@@@@@@@",
"@@@@@@@@@@@@@@@@@@@@@@@@@@@@@@@@",
"@@@@++@@@@@@@@+++@@@@@@@@++@@@@@",
"@@@@++OOOOOOOO+++OOOOOOOO++@@@@@",
"@@@@++OOOOOOOO+++OOOOOOOO++@@@@@",
"@@@@++OOOOOOOO+++OOOOOOOO++@@@@@",
"@@@@++OOOOOOOO+++OOOOOOOO++@@@@@",
"@@@@++OooooOOO+++OOOOOOOO++@@@@@",
"@@@@++OOOOOOOO+++OOOOOOOO++@@@@@",
"@@@@++OOOOOOOO+++OOOOOOOO++@@@@@",
"@@@@++OOOOOOOO+++OOOOOOOO++@@@@@",
"@@@@+++++++++++++++++++++++@@@@@",
"@@@@          +++          @@@@@",
"@@@@XXXXXXXXX +++@XXXXXXXXX@@@@@",
"@@@@XXooooooo     oooooooXX@@@@@",
"@@@@XXooooooo     oooooooXX@@@@@",
"@@@@XXoooooooooooooooooooXX@@@@@",
"@@@@XX...ooooo..oooooo...XX@@@@@",
"@@@@XXoooooooooooooooooooXX@@@@@",
"@@@@XXoooooooooooooooooooXX@@@@@",
"@@@@XXXXXXXXXXXXXXXXXXXXXXX@@@@@",
"@@@@@@@@@@@@@@@@@@@@@@@@@@@@@@@@",
"@@@@@@@@@@@@@@@@@@@@@@@@@@@@@@@@",
"@@@@@@@@@@@@@@@@@@@@@@@@@@@@@@@@",
"@@@@@@@@@@@@@@@@@@@@@@@@@@@@@@@@",
"@@@@@@@@@@@@@@@@@@@@@@@@@@@@@@@@",
"@@@@@@@@@@@@@@@@@@@@@@@@@@@@@@@@",
"@@@@@@@@@@@@@@@@@@@@@@@@@@@@@@@@"
};