/* XPM */
static char *result[] = {
/* columns rows colors chars-per-pixel */
"32 32 6 1 ",
"  c #222034",
". c #BE5D1B",
"X c #CF651D",
"o c #DF7126",
"O c #D8BBA7",
"+ c None",
/* pixels */
,"++++++++++++++++++++++++++++++++"
,"++++++++++++++++++++++++++++++++"
,"++++++++++++++++++++++++++++++++"
,"++++++++++++++++++++++++++++++++"
,"++++++++++++++++++++++++++++++++"
,"++++++++++++++++++++++++++++++++"
,"++++++++++++++++++++++++++++++++"
,"++++++++++++++++++++++++++++++++"
,"++++++++++++++++++++++++++++++++"
,"++++++++++++++++++++++++++++++++"
,"++++++++++++++++++++++++++++++++"
,"++++++++++++++++++++++++++++++++"
,"++++++++++++++++++++++++++++++++"
,"++++++++++++++++++++++++++++++++"
,"++++++++++++++++++++++++++++++++"
,"++++++++++++++++++++++++++++++++"
,"++++++++++++ + +++++++++++++++++"
,"+++++++++++ . X ++++++++++++++++"
,"++++++++++   XOX +++++++++++++++"
,"+++++++++ XXXXXX +++++++++++++++"
,"++++++++ XXXXXXX +++++++++++++++"
,"++++++++ XXXXXXX +++++++++++++++"
,"++++++++ X XXXXX +++++++++++++++"
,"++++++++ OXXXXXX +++++++++++++++"
,"++++++++ OOXXXXX +++++++++++++++"
,"+++++++++ ..... ++++++++++++++++"
,"+++++++++ O....O +++++++++++++++"
,"+++++++++ OO...O +++++++++++++++"
,"+++++++++ OO....O ++++++++++++++"
,"+++++++++ OOO.. ..  +  + +++++++"
,"+++++++++ . .... ... oo O ++++++"
"+++++++++ . .   ... .  o +++++++"
;}